FILE "Street Fighter Alpha - Warriors' Dreams (USA) (Track 01).bin" BINARY
  TRACK 01 MODE2/2352
    INDEX 01 00:00:00
  TRACK 02 AUDIO
    INDEX 00 03:02:08
    INDEX 01 03:04:08
  TRACK 03 AUDIO
    INDEX 00 03:48:02
    INDEX 01 03:50:02
  TRACK 04 AUDIO
    INDEX 00 03:56:28
    INDEX 01 03:58:28
  TRACK 05 AUDIO
    INDEX 00 04:04:67
    INDEX 01 04:06:67
  TRACK 06 AUDIO
    INDEX 00 04:11:69
    INDEX 01 04:13:69
  TRACK 07 AUDIO
    INDEX 00 04:38:70
    INDEX 01 04:40:70
  TRACK 08 AUDIO
    INDEX 00 05:05:70
    INDEX 01 05:07:70
  TRACK 09 AUDIO
    INDEX 00 05:23:07
    INDEX 01 05:25:07
  TRACK 10 AUDIO
    INDEX 00 05:30:71
    INDEX 01 05:32:71
  TRACK 11 AUDIO
    INDEX 00 06:59:67
    INDEX 01 07:01:67
  TRACK 12 AUDIO
    INDEX 00 08:28:61
    INDEX 01 08:30:61
  TRACK 13 AUDIO
    INDEX 00 09:34:56
    INDEX 01 09:36:56
  TRACK 14 AUDIO
    INDEX 00 10:46:03
    INDEX 01 10:48:03
  TRACK 15 AUDIO
    INDEX 00 11:50:61
    INDEX 01 11:52:61
  TRACK 16 AUDIO
    INDEX 00 12:51:09
    INDEX 01 12:53:09
  TRACK 17 AUDIO
    INDEX 00 13:44:47
    INDEX 01 13:46:47
  TRACK 18 AUDIO
    INDEX 00 14:45:03
    INDEX 01 14:47:03
  TRACK 19 AUDIO
    INDEX 00 15:52:02
    INDEX 01 15:54:02
  TRACK 20 AUDIO
    INDEX 00 17:07:08
    INDEX 01 17:09:08
  TRACK 21 AUDIO
    INDEX 00 18:05:69
    INDEX 01 18:07:69
  TRACK 22 AUDIO
    INDEX 00 19:28:31
    INDEX 01 19:30:31
  TRACK 23 AUDIO
    INDEX 00 20:28:74
    INDEX 01 20:30:74
  TRACK 24 AUDIO
    INDEX 00 21:27:70
    INDEX 01 21:29:70
  TRACK 25 AUDIO
    INDEX 00 22:35:46
    INDEX 01 22:37:46
  TRACK 26 AUDIO
    INDEX 00 24:46:47
    INDEX 01 24:48:47
  TRACK 27 AUDIO
    INDEX 00 26:17:51
    INDEX 01 26:19:51
  TRACK 28 AUDIO
    INDEX 00 28:00:60
    INDEX 01 28:02:60
  TRACK 29 AUDIO
    INDEX 00 29:14:34
    INDEX 01 29:16:34
  TRACK 30 AUDIO
    INDEX 00 30:46:40
    INDEX 01 30:48:40
  TRACK 31 AUDIO
    INDEX 00 33:09:25
    INDEX 01 33:11:25
  TRACK 32 AUDIO
    INDEX 00 35:08:46
    INDEX 01 35:10:46
  TRACK 33 AUDIO
    INDEX 00 36:54:70
    INDEX 01 36:56:70
  TRACK 34 AUDIO
    INDEX 00 38:12:45
    INDEX 01 38:14:45
  TRACK 35 AUDIO
    INDEX 00 39:50:00
    INDEX 01 39:52:00
  TRACK 36 AUDIO
    INDEX 00 42:04:04
    INDEX 01 42:06:04
  TRACK 37 AUDIO
    INDEX 00 44:02:74
    INDEX 01 44:04:74
  TRACK 38 AUDIO
    INDEX 00 46:08:21
    INDEX 01 46:10:21
  TRACK 39 AUDIO
    INDEX 00 46:30:23
    INDEX 01 46:32:23
  TRACK 40 AUDIO
    INDEX 00 46:55:24
    INDEX 01 46:57:24
  TRACK 41 AUDIO
    INDEX 00 47:42:20
    INDEX 01 47:44:20
  TRACK 42 AUDIO
    INDEX 00 48:14:53
    INDEX 01 48:16:53
  TRACK 43 AUDIO
    INDEX 00 49:00:12
    INDEX 01 49:02:12
  TRACK 44 AUDIO
    INDEX 00 49:52:42
    INDEX 01 49:54:42
  TRACK 45 AUDIO
    INDEX 00 50:51:27
    INDEX 01 50:53:27
  TRACK 46 AUDIO
    INDEX 00 51:22:28
    INDEX 01 51:24:28
  TRACK 47 AUDIO
    INDEX 00 52:00:46
    INDEX 01 52:02:46
  TRACK 48 AUDIO
    INDEX 00 52:43:50
    INDEX 01 52:45:50
  TRACK 49 AUDIO
    INDEX 00 54:32:35
    INDEX 01 54:34:35
  TRACK 50 AUDIO
    INDEX 00 55:00:37
    INDEX 01 55:02:37
  TRACK 51 AUDIO
    INDEX 00 55:31:00
    INDEX 01 55:33:00
REM LEADOUT 59:03:00
